<svg xmlns="http://www.w3.org/2000/svg" xmlns:xlink="http://www.w3.org/1999/xlink" version="1.1" x="0px" y="0px" viewBox="0 0 100 125" enable-background="new 0 0 100 100" xml:space="preserve"><g display="none"><path display="inline" d="M74.7,30.2H60.1L50,20.1c0,0-5.8,5.8-10.1,10.1H25.3c-2.7,0-4.8,2.2-4.8,4.8v40c0,2.7,2.2,4.8,4.8,4.8   h49.4c2.7,0,4.8-2.2,4.8-4.8V35C79.5,32.4,77.4,30.2,74.7,30.2z M50,39.5c2.6,0,5.8,2,5.8,7.4c0,4.4-2.1,8.5-5.8,8.5   s-5.8-4.1-5.8-8.5C44.2,41.5,47.4,39.5,50,39.5z M61.8,68H50c0,0-11.8,0-11.8,0v-1.8c0-1.8,0.8-8.1,10.1-8.1H50h1.7   c9.3,0,10.1,6.3,10.1,8.1V68z"/><path display="inline" d="M74.7,21H25.3c-2.7,0-4.8,2.2-4.8,4.8v48.3c0,2.7,2.2,4.8,4.8,4.8H50V56.7h-6.4v-9.6H50   v-6.5c0-5.3,4.3-9.6,9.6-9.6h10v9.6h-6.8c-1.7,0-3.1,1.4-3.1,3.1v3.4h10v9.6h-10V79h15.1c2.7,0,4.8-2.2,4.8-4.8V25.9   C79.5,23.2,77.4,21,74.7,21z"/><g display="inline"><path d="M67.9,35.1C59.7,35.1,53,41.8,53,50s6.7,14.9,14.9,14.9S82.8,58.2,82.8,50S76.1,35.1,67.9,35.1z     M67.9,59.5c-5.2,0-9.5-4.3-9.5-9.5s4.3-9.5,9.5-9.5s9.5,4.3,9.5,9.5S73.1,59.5,67.9,59.5z"/><path d="M32.1,35.1c-8.2,0-14.9,6.7-14.9,14.9s6.7,14.9,14.9,14.9S47,58.2,47,50S40.3,35.1,32.1,35.1z"/></g><path display="inline" d="M69.7,67.8c-1.8,1.6-4.2,2.6-6.8,2.6c-2.6,0-4.9-0.9-6.7-2.5c-0.2-0.1-0.3-0.3-0.5-0.5   c-1.1-1.3-1.6-3-1.6-4.7V47.4h14.3V35.7H54.1V19.3H43.6l0,0c0,7.4-6,16.4-13.3,16.4h0v11.8h8.9l0,17.2c0,4.3,1.8,8.5,5,11.3   c3.4,3,7.8,4.7,12.7,4.7c4.9,0,9.4-1.8,12.8-4.8V67.8z"/><path display="inline" d="M50,1.3C23.1,1.3,1.3,23.1,1.3,50c0,26.9,21.8,48.7,48.7,48.7S98.7,76.9,98.7,50   C98.7,23.1,76.9,1.3,50,1.3z M44.7,75H26.9c-1,0-1.8-0.8-1.8-1.8V55.3c0-1,0.8-1.8,1.8-1.8s1.8,0.8,1.8,1.8v15.9h15.9   c1,0,1.8,0.8,1.8,1.8S45.7,75,44.7,75z M75,44.7c0,1-0.8,1.8-1.8,1.8s-1.8-0.8-1.8-1.8V28.7H55.3c-1,0-1.8-0.8-1.8-1.8   c0-1,0.8-1.8,1.8-1.8h17.8c1,0,1.8,0.8,1.8,1.8V44.7z"/><g display="inline"><path d="M50,1.3C23.1,1.3,1.3,23.1,1.3,50c0,26.9,21.8,48.7,48.7,48.7S98.7,76.9,98.7,50    C98.7,23.1,76.9,1.3,50,1.3z M71.5,58.5c0,7.1-5.8,12.9-12.9,12.9H41.5c-7.1,0-12.9-5.8-12.9-12.9V41.5c0-7.1,5.8-12.9,12.9-12.9    h17.1c7.1,0,12.9,5.8,12.9,12.9V58.5z"/><path d="M32.2,41.5v17.1c0,5.1,4.1,9.2,9.2,9.2h6.7V32.2h-6.7C36.4,32.2,32.2,36.4,32.2,41.5z"/><path d="M51.8,67.8h6.7c5.1,0,9.2-4.1,9.2-9.2v-6.7H51.8V67.8z"/><path d="M58.5,32.2h-6.7v15.9h15.9v-6.7C67.8,36.4,63.6,32.2,58.5,32.2z"/></g><g display="inline"><path d="M36,42.1c-4.4,0-7.9,3.6-7.9,7.9c0,4.4,3.6,7.9,7.9,7.9c4.9,0,9.6-5,11.8-7.9C46,47.7,41.3,42.1,36,42.1z    "/><path d="M64,42.1c-5.3,0-10,5.6-11.8,7.9c1.7,2.3,6.5,7.9,11.8,7.9c4.4,0,7.9-3.6,7.9-7.9    C71.9,45.6,68.4,42.1,64,42.1z"/><path d="M50,1.3C23.1,1.3,1.3,23.1,1.3,50c0,26.9,21.8,48.7,48.7,48.7c26.9,0,48.7-21.8,48.7-48.7    C98.7,23.1,76.9,1.3,50,1.3z M64,61.6c-6.3,0-11.5-5.4-14-8.5c-2.5,3.1-7.7,8.5-14,8.5c-6.4,0-11.6-5.2-11.6-11.6    S29.6,38.4,36,38.4c6.3,0,11.5,5.4,14,8.5c2.5-3.1,7.7-8.5,14-8.5c6.4,0,11.6,5.2,11.6,11.6S70.4,61.6,64,61.6z"/></g><g display="inline"><path d="M43.8,74.9H25.1V56.2c0-1.2-1-2.2-2.2-2.2c-1.2,0-2.2,1-2.2,2.2V77c0,1.2,1,2.2,2.2,2.2h20.8    c1.2,0,2.2-1,2.2-2.2C45.9,75.8,44.9,74.9,43.8,74.9z"/><path d="M77,20.8H56.2c-1.2,0-2.2,1-2.2,2.2s1,2.2,2.2,2.2h18.6v18.6c0,1.2,1,2.2,2.2,2.2c1.2,0,2.2-1,2.2-2.2V23    C79.2,21.8,78.2,20.8,77,20.8z"/></g><path display="inline" d="M60,24.9H40c-8.3,0-15.1,6.8-15.1,15.1v20c0,8.3,6.8,15.1,15.1,15.1h20   c8.3,0,15.1-6.8,15.1-15.1V40C75.1,31.7,68.3,24.9,60,24.9z M70.8,40v7.8H52.2V29.2H60C65.9,29.2,70.8,34.1,70.8,40z M29.2,60V40   c0-6,4.8-10.8,10.8-10.8h7.8v41.6H40C34.1,70.8,29.2,65.9,29.2,60z M60,70.8h-7.8V52.2h18.6V60C70.8,65.9,65.9,70.8,60,70.8z"/><path display="inline" d="M66.4,36.4c-7.4,0-13.5,6.3-16.4,9.9c-2.9-3.6-9-9.9-16.4-9.9c-7.5,0-13.6,6.1-13.6,13.6   s6.1,13.6,13.6,13.6c7.4,0,13.5-6.3,16.4-9.9c2.9,3.6,9,9.9,16.4,9.9c7.5,0,13.6-6.1,13.6-13.6S73.9,36.4,66.4,36.4z M33.6,59.3   c-5.1,0-9.3-4.2-9.3-9.3s4.2-9.3,9.3-9.3c6.2,0,11.7,6.6,13.7,9.3C44.9,53.4,39.3,59.3,33.6,59.3z M66.4,59.3   c-6.2,0-11.7-6.5-13.7-9.3c2-2.7,7.5-9.3,13.7-9.3c5.1,0,9.3,4.2,9.3,9.3S71.5,59.3,66.4,59.3z"/><g display="inline"><path d="M50,4.7C25,4.7,4.7,25,4.7,50S25,95.3,50,95.3S95.3,75,95.3,50S75,4.7,50,4.7z M50,89.9    C28,89.9,10.1,72,10.1,50S28,10.1,50,10.1S89.9,28,89.9,50S72,89.9,50,89.9z"/><path d="M67.6,52.3L49.7,41.5h0l3.6-23.9c0.2-1.4-1.7-2.1-2.4-0.9L32,45.9c-0.4,0.6-0.2,1.5,0.4,1.9l17.8,10.8h0    l-3.6,23.9c-0.2,1.4,1.7,2.1,2.4,0.9L68,54.1C68.4,53.5,68.2,52.6,67.6,52.3z"/></g><g display="inline"><rect x="67.7" y="45.3" width="9.5" height="9.5"/><rect x="45.3" y="45.3" width="9.5" height="9.5"/><rect x="22.9" y="45.3" width="9.5" height="9.5"/><rect x="67.7" y="67.7" width="9.5" height="9.5"/><rect x="45.3" y="67.7" width="9.5" height="9.5"/><rect x="22.9" y="67.7" width="9.5" height="9.5"/><rect x="67.7" y="22.9" width="9.5" height="9.5"/><rect x="45.3" y="22.9" width="9.5" height="9.5"/><rect x="22.9" y="22.9" width="9.5" height="9.5"/></g><g display="inline"><rect x="18.7" y="21.2" width="7.9" height="7.9"/><rect x="18.7" y="46.1" width="7.9" height="7.9"/><rect x="18.7" y="71" width="7.9" height="7.9"/><rect x="33.1" y="23.6" width="48.2" height="2.9"/><rect x="33.1" y="48.6" width="48.2" height="2.9"/><rect x="33.1" y="73.5" width="48.2" height="2.9"/></g></g><g><polygon points="76.2,46.8 36.2,46.8 56.2,26.8 51.6,22.2 23.8,50 51.6,77.8 56.2,73.2 36.2,53.2 76.2,53.2  "/></g><text x="0" y="115" fill="#000000" font-size="5px" font-weight="bold" font-family="'Helvetica Neue', Helvetica, Arial-Unicode, Arial, Sans-serif">Created by Ilaria Bernareggi</text><text x="0" y="120" fill="#000000" font-size="5px" font-weight="bold" font-family="'Helvetica Neue', Helvetica, Arial-Unicode, Arial, Sans-serif">from the Noun Project</text></svg>