<svg xmlns="http://www.w3.org/2000/svg" viewBox="0 0 80.17 160.18"><defs><style>.cls-1{fill:#fefefe;}.cls-2{fill:#4281a4;}</style></defs><title>Fichier 1</title><g id="Calque_2" data-name="Calque 2"><g id="Calque_1-2" data-name="Calque 1"><path class="cls-1" d="M.08,80.23C.08,54.59.14,29,0,3.31,0,.51.6,0,3.34,0Q40.06.2,76.77,0c2.62,0,3.41.33,3.4,3.25q-.18,76.92,0,153.84c0,2.53-.62,3.05-3.08,3-24.64-.1-49.28-.14-73.92,0C0,160.2,0,159.05,0,156.65.11,131.18.08,105.7.08,80.23Z"/><path class="cls-2" d="M39.49,118.23c-.85.79-1.61,1.44-2.3,2.14-3.15,3.21-6.45,6.3-9.37,9.71-2.14,2.49-3.49,2-5.57-.07s-2.67-3.26-.28-5.57c5.15-5,10-10.22,14.89-15.49,1.8-2,3-1.85,4.8,0,5.19,5.17,10.48,10.25,16,15.12,2.39,2.13,1.56,3.37-.25,5.11s-2.9,3.52-5.44.71c-3.11-3.45-6.72-6.45-10.12-9.64C41.09,119.56,40.33,119,39.49,118.23Z"/></g></g></svg>